<?xml version="1.0" encoding="UTF-8"?>
<svg width="518px" height="183px" viewBox="0 0 518 183" version="1.1" xmlns="http://www.w3.org/2000/svg" xmlns:xlink="http://www.w3.org/1999/xlink">
    <!-- Generator: Sketch 58 (84663) - https://sketch.com -->
    <title>iron</title>
    <desc>Created with Sketch.</desc>
    <g id="iron" stroke="none" stroke-width="1" fill="none" fill-rule="evenodd">
        <path d="M62.2508335,157.835033 L62.25,23 C62.25,11.75 65,8.75 79,6.125 L79,0 L1,0 L1,6.125 C15.1075,8.72375 17.8213375,11.6900375 17.8742035,22.6649671 L17.875,157.5 C17.875,168.75 15.25,171.75 1,174.375 L1,180.5 L79,180.5 L79,174.375 L77.7701455,174.137525 C64.9708015,171.589121 62.3044495,168.477389 62.2508335,157.835033 L62.2508335,157.835033 Z M146.95,54.625 L91.7,61.375 L91.7,67.125 L98.075,69.125 C104.847388,71.4645522 106.040137,73.197622 106.074233,81.0154312 L106.075,160.875 C106.075,169.625 104.075,172.375 91.7,174.375 L91.7,180.5 L163.2,180.5 L163.2,174.375 L161.96931,174.167116 C149.314353,171.957492 147.2,169.197704 147.2,159.625 L147.2,94.125 C152.7,89 165.325,85.75 177.7,85.75 C184.825,85.75 192.075,86.875 195.7,88.25 C197.2,85.25 198.575,80 198.575,74.625 C198.575,63.375 193.2,54.375 181.95,54.375 C169.325,54.375 158.825,65 146.825,89.875 L146.95,54.625 Z M277.15,183 C317.4,183 347.525,156.25 347.525,117.875 C347.525,78.75 317.65,53.875 277.65,53.875 C237.525,53.875 207.4,80.5 207.4,118.875 C207.4,158.125 237.275,183 277.15,183 Z M278.025,174.75 C261.275,174.75 250.9,153.25 250.9,117.5 C250.9,83 259.9,62.125 276.9,62.125 C293.525,62.125 303.9,83.5 303.9,119.25 C303.9,153.75 294.9,174.75 278.025,174.75 Z M417.6,54.625 L417.6,77.875 C423.85,63.625 439.35,53.875 460.6,53.875 C485.975,53.875 503.1,66.75 503.1,93.75 L503.1,160.625 C503.1,169.625 505.225,172.25 517.6,174.375 L517.6,180.5 L449.6,180.5 L449.6,174.375 L450.327169,174.243301 C460.192338,172.408197 462.056248,169.980106 462.099229,161.677656 L462.1,96.125 C462.1,79.375 453.85,71 439.725,71 C429.475,71 421.6,75.75 417.85,82.75 L417.85,161.375 C417.85,170.125 419.475,172.375 430.35,174.375 L430.35,180.5 L362.35,180.5 L362.35,174.375 L363.143787,174.232528 C374.444001,172.154075 376.674913,169.486404 376.724156,160.922647 L376.725,81.375 C376.725,73.25 375.725,71.5 368.725,69.125 L362.35,67.125 L362.35,61.375 L417.6,54.625 Z" id="Iron" fill="#555C71" fill-rule="nonzero"></path>
    </g>
</svg>