<?xml version="1.0" encoding="UTF-8"?>
<svg width="256px" height="256px" viewBox="0 0 256 256" version="1.1" xmlns="http://www.w3.org/2000/svg" xmlns:xlink="http://www.w3.org/1999/xlink">
    <!-- Generator: Sketch 58 (84663) - https://sketch.com -->
    <title>logo</title>
    <desc>Created with Sketch.</desc>
    <g id="logo" stroke="none" stroke-width="1" fill="none" fill-rule="evenodd">
        <polygon id="Rectangle" fill="#555C71" fill-rule="nonzero" points="0 0 256 0 256 256 0 256"></polygon>
        <path d="M133.079102,74 L52,74 L52,78.9072266 L52.7335663,79.029906 C60.9736303,80.4488792 62.5039279,82.1892335 62.545969,88.3766066 L62.546875,165.113281 C62.546875,171.705078 61.0087891,173.389648 52,174.854492 L52,179.761719 L99.9003906,179.761719 L99.9003906,174.854492 C90.2856889,173.480963 88.5197233,171.322561 88.4754757,164.365032 L88.4746094,129.664062 L101.731445,129.883789 C109.788086,130.176758 111.912109,133.472656 114.036133,145.044922 L118.430664,145.044922 L118.430664,108.49707 L114.036133,108.49707 L113.796277,109.698889 C111.613474,120.36641 109.433077,123.375574 101.731445,123.658203 L88.4746094,123.951172 L88.4746094,79.7128906 L100.925781,80.2255859 L102.03514,80.2826146 C119.900693,81.285459 125.394531,85.8461914 129.270508,102.857422 L133.958008,102.857422 L133.079102,74 Z M132.830078,143.360352 C132.830078,166.944336 150.261719,181.299805 172.307617,181.299805 C185.930664,181.299805 197.209961,176.539062 202.776367,168.848633 L202.776367,163.941406 C198.894531,167.676758 192.449219,170.166992 185.491211,170.166992 C170.183594,170.166992 159.416992,159.839844 157.366211,141.749023 L203.948242,141.749023 L204.03021,141.218447 C204.219467,139.899658 204.387695,138.041138 204.387695,136.182617 C204.387695,117.286133 192.009766,104.761719 171.282227,104.761719 C148.357422,104.761719 132.830078,120.508789 132.830078,143.360352 Z M157.073242,136.036133 L157.073242,135.450195 C157.073242,119.849609 162.34668,111.280273 171.282227,111.280273 C179.265625,111.280273 183.147461,119.19043 183.147461,132.007812 C183.147461,133.619141 183.074219,134.791016 183.000977,135.889648 L157.073242,136.036133 Z" id="Fe" fill="#FFFFFF" fill-rule="nonzero"></path>
    </g>
</svg>